<svg width="263" height="40" viewBox="0 0 263 40" fill="none" xmlns="http://www.w3.org/2000/svg">
<g clip-path="url(#clip0_6_470)">
<path fill-rule="evenodd" clip-rule="evenodd" d="M37.1382 0.274579C32.8705 -0.868955 28.4838 1.66371 27.3402 5.93143L25.2697 13.6588C24.1262 17.9266 26.6588 22.3133 30.9265 23.4568L38.654 25.5273C42.9217 26.6709 47.3084 24.1382 48.4519 19.8705L50.5225 12.1431C51.666 7.87536 49.1333 3.48866 44.8656 2.34513L37.1382 0.274579ZM31.2039 6.96671C31.7757 4.83285 33.9691 3.56651 36.1029 4.13828L43.8303 6.20883C45.9642 6.7806 47.2305 8.97395 46.6588 11.1078L44.5882 18.8352C44.0164 20.9691 41.8231 22.2354 39.6892 21.6636L31.9618 19.5931C29.828 19.0213 28.5616 16.828 29.1334 14.6941L31.2039 6.96671ZM12.6431 14.4167C8.37536 13.2731 3.98867 15.8058 2.84513 20.0735L0.774579 27.8009C-0.368956 32.0687 2.1637 36.4554 6.43143 37.5989L14.1588 39.6694C18.4266 40.813 22.8133 38.2803 23.9568 34.0126L26.0274 26.2852C27.1709 22.0174 24.6382 17.6308 20.3705 16.4872L12.6431 14.4167ZM6.70884 21.1088C7.2806 18.9749 9.47395 17.7086 11.6078 18.2804L19.3352 20.3509C21.4691 20.9227 22.7354 23.116 22.1636 25.2499L20.0931 32.9773C19.5213 35.1112 17.328 36.3775 15.1941 35.8057L7.46671 33.7352C5.33285 33.1634 4.06652 30.9701 4.63828 28.8362L6.70884 21.1088Z" fill="white"/>
<path d="M69.3419 32.356C67.4859 32.356 65.8645 31.9187 64.4779 31.044C63.1125 30.148 62.1739 28.9427 61.6619 27.428L64.7979 25.924C65.2459 26.9053 65.8645 27.6733 66.6539 28.228C67.4645 28.7827 68.3605 29.06 69.3419 29.06C70.1099 29.06 70.7179 28.8893 71.1659 28.548C71.6139 28.2067 71.8379 27.7587 71.8379 27.204C71.8379 26.8627 71.7419 26.5853 71.5499 26.372C71.3792 26.1373 71.1339 25.9453 70.8139 25.796C70.5152 25.6253 70.1845 25.4867 69.8219 25.38L66.9739 24.58C65.5019 24.1533 64.3819 23.5027 63.6139 22.628C62.8672 21.7533 62.4939 20.7187 62.4939 19.524C62.4939 18.4573 62.7605 17.5293 63.2939 16.74C63.8485 15.9293 64.6059 15.3 65.5659 14.852C66.5472 14.404 67.6672 14.18 68.9259 14.18C70.5685 14.18 72.0192 14.5746 73.2779 15.364C74.5365 16.1533 75.4325 17.2627 75.9659 18.692L72.7659 20.196C72.4672 19.4067 71.9659 18.7773 71.2619 18.308C70.5579 17.8387 69.7685 17.604 68.8939 17.604C68.1899 17.604 67.6352 17.764 67.2299 18.084C66.8245 18.404 66.6219 18.82 66.6219 19.332C66.6219 19.652 66.7072 19.9293 66.8779 20.164C67.0485 20.3987 67.2832 20.5907 67.5819 20.74C67.9019 20.8893 68.2645 21.028 68.6699 21.156L71.4539 21.988C72.8832 22.4147 73.9819 23.0547 74.7499 23.908C75.5392 24.7613 75.9339 25.8067 75.9339 27.044C75.9339 28.0893 75.6565 29.0173 75.1019 29.828C74.5472 30.6173 73.7792 31.236 72.7979 31.684C71.8165 32.132 70.6645 32.356 69.3419 32.356ZM87.0914 32.164C85.1287 32.164 83.6034 31.6307 82.5154 30.564C81.4487 29.476 80.9154 27.9507 80.9154 25.988V18.308H77.9074V14.564H78.2274C79.0807 14.564 79.742 14.34 80.2114 13.892C80.6807 13.444 80.9154 12.7933 80.9154 11.94V10.596H85.1074V14.564H89.1074V18.308H85.1074V25.764C85.1074 26.34 85.2034 26.8307 85.3954 27.236C85.6087 27.6413 85.9287 27.9507 86.3554 28.164C86.8034 28.3773 87.3687 28.484 88.0514 28.484C88.2007 28.484 88.3714 28.4733 88.5634 28.452C88.7767 28.4307 88.9794 28.4093 89.1714 28.388V31.972C88.8727 32.0147 88.5314 32.0573 88.1474 32.1C87.7634 32.1427 87.4114 32.164 87.0914 32.164ZM98.5821 32.356C97.2381 32.356 96.0648 32.0573 95.0621 31.46C94.0808 30.8627 93.3235 30.0307 92.7901 28.964C92.2781 27.8973 92.0221 26.6493 92.0221 25.22V14.564H96.2141V24.868C96.2141 25.5933 96.3528 26.2333 96.6301 26.788C96.9288 27.3213 97.3448 27.748 97.8781 28.068C98.4328 28.3667 99.0515 28.516 99.7341 28.516C100.417 28.516 101.025 28.3667 101.558 28.068C102.091 27.748 102.507 27.3107 102.806 26.756C103.105 26.2013 103.254 25.54 103.254 24.772V14.564H107.446V31.972H103.478V28.548L103.83 29.156C103.425 30.2227 102.753 31.0227 101.814 31.556C100.897 32.0893 99.8195 32.356 98.5821 32.356ZM119.439 32.356C117.754 32.356 116.25 31.9613 114.927 31.172C113.604 30.3613 112.559 29.2627 111.791 27.876C111.023 26.4893 110.639 24.9533 110.639 23.268C110.639 21.5613 111.023 20.0253 111.791 18.66C112.559 17.2947 113.604 16.2067 114.927 15.396C116.271 14.5853 117.764 14.18 119.407 14.18C120.73 14.18 121.903 14.4467 122.927 14.98C123.972 15.492 124.794 16.2173 125.391 17.156L124.751 18.02V7.74798H128.943V31.972H124.975V28.612L125.423 29.444C124.826 30.3827 123.994 31.108 122.927 31.62C121.86 32.1107 120.698 32.356 119.439 32.356ZM119.887 28.516C120.847 28.516 121.69 28.292 122.415 27.844C123.14 27.396 123.706 26.7773 124.111 25.988C124.538 25.1987 124.751 24.292 124.751 23.268C124.751 22.2653 124.538 21.3693 124.111 20.58C123.706 19.7693 123.14 19.14 122.415 18.692C121.69 18.244 120.847 18.02 119.887 18.02C118.948 18.02 118.106 18.2547 117.359 18.724C116.612 19.172 116.026 19.7907 115.599 20.58C115.194 21.348 114.991 22.244 114.991 23.268C114.991 24.292 115.194 25.1987 115.599 25.988C116.026 26.7773 116.612 27.396 117.359 27.844C118.106 28.292 118.948 28.516 119.887 28.516ZM132.843 31.972V14.564H137.035V31.972H132.843ZM132.843 12.612V8.13198H137.035V12.612H132.843ZM149.417 32.356C147.711 32.356 146.153 31.9613 144.745 31.172C143.359 30.3827 142.249 29.3053 141.417 27.94C140.607 26.5747 140.201 25.0173 140.201 23.268C140.201 21.5187 140.607 19.9613 141.417 18.596C142.249 17.2307 143.359 16.1533 144.745 15.364C146.132 14.5746 147.689 14.18 149.417 14.18C151.124 14.18 152.671 14.5746 154.057 15.364C155.444 16.1533 156.543 17.2307 157.353 18.596C158.185 19.94 158.601 21.4973 158.601 23.268C158.601 25.0173 158.185 26.5747 157.353 27.94C156.521 29.3053 155.412 30.3827 154.025 31.172C152.639 31.9613 151.103 32.356 149.417 32.356ZM149.417 28.516C150.356 28.516 151.177 28.292 151.881 27.844C152.607 27.396 153.172 26.7773 153.577 25.988C154.004 25.1773 154.217 24.2707 154.217 23.268C154.217 22.244 154.004 21.348 153.577 20.58C153.172 19.7907 152.607 19.172 151.881 18.724C151.177 18.2547 150.356 18.02 149.417 18.02C148.457 18.02 147.615 18.2547 146.889 18.724C146.164 19.172 145.588 19.7907 145.161 20.58C144.756 21.348 144.553 22.244 144.553 23.268C144.553 24.2707 144.756 25.1773 145.161 25.988C145.588 26.7773 146.164 27.396 146.889 27.844C147.615 28.292 148.457 28.516 149.417 28.516ZM175.724 32.356C173.932 32.356 172.364 31.9507 171.02 31.14C169.676 30.3293 168.631 29.2307 167.884 27.844C167.137 26.4573 166.764 24.9213 166.764 23.236C166.764 21.4867 167.137 19.94 167.884 18.596C168.652 17.2307 169.687 16.1533 170.988 15.364C172.311 14.5746 173.783 14.18 175.404 14.18C176.769 14.18 177.964 14.404 178.988 14.852C180.033 15.3 180.919 15.9187 181.644 16.708C182.369 17.4973 182.924 18.404 183.308 19.428C183.692 20.4307 183.884 21.5187 183.884 22.692C183.884 22.9907 183.863 23.3 183.82 23.62C183.799 23.94 183.745 24.2173 183.66 24.452H170.22V21.252H181.292L179.308 22.756C179.5 21.7747 179.447 20.9 179.148 20.132C178.871 19.364 178.401 18.756 177.74 18.308C177.1 17.86 176.321 17.636 175.404 17.636C174.529 17.636 173.751 17.86 173.068 18.308C172.385 18.7347 171.863 19.3747 171.5 20.228C171.159 21.06 171.031 22.0733 171.116 23.268C171.031 24.3347 171.169 25.284 171.532 26.116C171.916 26.9267 172.471 27.556 173.196 28.004C173.943 28.452 174.796 28.676 175.756 28.676C176.716 28.676 177.527 28.4733 178.188 28.068C178.871 27.6627 179.404 27.1187 179.788 26.436L183.18 28.1C182.839 28.932 182.305 29.668 181.58 30.308C180.855 30.948 179.991 31.4493 178.988 31.812C178.007 32.1747 176.919 32.356 175.724 32.356ZM187.062 31.972V7.74798H191.254V31.972H187.062ZM203.06 32.164C201.097 32.164 199.572 31.6307 198.484 30.564C197.417 29.476 196.884 27.9507 196.884 25.988V18.308H193.876V14.564H194.196C195.049 14.564 195.711 14.34 196.18 13.892C196.649 13.444 196.884 12.7933 196.884 11.94V10.596H201.076V14.564H205.076V18.308H201.076V25.764C201.076 26.34 201.172 26.8307 201.364 27.236C201.577 27.6413 201.897 27.9507 202.324 28.164C202.772 28.3773 203.337 28.484 204.02 28.484C204.169 28.484 204.34 28.4733 204.532 28.452C204.745 28.4307 204.948 28.4093 205.14 28.388V31.972C204.841 32.0147 204.5 32.0573 204.116 32.1C203.732 32.1427 203.38 32.164 203.06 32.164ZM216.279 32.164C214.316 32.164 212.791 31.6307 211.703 30.564C210.636 29.476 210.103 27.9507 210.103 25.988V18.308H207.095V14.564H207.415C208.268 14.564 208.93 14.34 209.399 13.892C209.868 13.444 210.103 12.7933 210.103 11.94V10.596H214.295V14.564H218.295V18.308H214.295V25.764C214.295 26.34 214.391 26.8307 214.583 27.236C214.796 27.6413 215.116 27.9507 215.543 28.164C215.991 28.3773 216.556 28.484 217.239 28.484C217.388 28.484 217.559 28.4733 217.751 28.452C217.964 28.4307 218.167 28.4093 218.359 28.388V31.972C218.06 32.0147 217.719 32.0573 217.335 32.1C216.951 32.1427 216.599 32.164 216.279 32.164ZM229.917 32.356C228.211 32.356 226.653 31.9613 225.245 31.172C223.859 30.3827 222.749 29.3053 221.917 27.94C221.107 26.5747 220.701 25.0173 220.701 23.268C220.701 21.5187 221.107 19.9613 221.917 18.596C222.749 17.2307 223.859 16.1533 225.245 15.364C226.632 14.5746 228.189 14.18 229.917 14.18C231.624 14.18 233.171 14.5746 234.557 15.364C235.944 16.1533 237.043 17.2307 237.853 18.596C238.685 19.94 239.101 21.4973 239.101 23.268C239.101 25.0173 238.685 26.5747 237.853 27.94C237.021 29.3053 235.912 30.3827 234.525 31.172C233.139 31.9613 231.603 32.356 229.917 32.356ZM229.917 28.516C230.856 28.516 231.677 28.292 232.381 27.844C233.107 27.396 233.672 26.7773 234.077 25.988C234.504 25.1773 234.717 24.2707 234.717 23.268C234.717 22.244 234.504 21.348 234.077 20.58C233.672 19.7907 233.107 19.172 232.381 18.724C231.677 18.2547 230.856 18.02 229.917 18.02C228.957 18.02 228.115 18.2547 227.389 18.724C226.664 19.172 226.088 19.7907 225.661 20.58C225.256 21.348 225.053 22.244 225.053 23.268C225.053 24.2707 225.256 25.1773 225.661 25.988C226.088 26.7773 226.664 27.396 227.389 27.844C228.115 28.292 228.957 28.516 229.917 28.516ZM251.784 32.356C250.526 32.356 249.363 32.1107 248.296 31.62C247.251 31.108 246.419 30.3827 245.8 29.444L246.216 28.612V31.972H242.28V7.74798H246.472V18.02L245.832 17.156C246.43 16.2173 247.24 15.492 248.264 14.98C249.288 14.4467 250.472 14.18 251.816 14.18C253.459 14.18 254.942 14.5853 256.264 15.396C257.587 16.2067 258.632 17.2947 259.4 18.66C260.19 20.0253 260.584 21.5613 260.584 23.268C260.584 24.9533 260.2 26.4893 259.432 27.876C258.664 29.2627 257.619 30.3613 256.296 31.172C254.974 31.9613 253.47 32.356 251.784 32.356ZM251.304 28.516C252.264 28.516 253.118 28.292 253.864 27.844C254.611 27.396 255.187 26.7773 255.592 25.988C256.019 25.1987 256.232 24.292 256.232 23.268C256.232 22.244 256.019 21.348 255.592 20.58C255.187 19.7907 254.611 19.172 253.864 18.724C253.118 18.2547 252.264 18.02 251.304 18.02C250.387 18.02 249.555 18.244 248.808 18.692C248.083 19.14 247.507 19.7693 247.08 20.58C246.675 21.3693 246.472 22.2653 246.472 23.268C246.472 24.292 246.675 25.1987 247.08 25.988C247.507 26.7773 248.083 27.396 248.808 27.844C249.555 28.292 250.387 28.516 251.304 28.516Z" fill="white"/>
</g>
<defs>
<clipPath id="clip0_6_470">
<rect width="262" height="40" fill="white" transform="translate(0.5)"/>
</clipPath>
</defs>
</svg>
