<svg width="1149" height="887" viewBox="0 0 1149 887" fill="none" xmlns="http://www.w3.org/2000/svg">
<g clip-path="url(#clip0_3_99)">
<g opacity="0.4" clip-path="url(#clip1_3_99)">
<path fill-rule="evenodd" clip-rule="evenodd" d="M1081.38 -508.55C1090.53 -542.692 1125.62 -562.953 1159.76 -553.805L1221.58 -537.241C1255.72 -528.092 1275.98 -492.999 1266.84 -458.857L1250.27 -397.038C1241.12 -362.896 1206.03 -342.635 1171.89 -351.783L1110.07 -368.348C1075.93 -377.496 1055.67 -412.589 1064.81 -446.731L1081.38 -508.55ZM1151.48 -522.895C1134.41 -527.47 1116.86 -517.339 1112.29 -500.268L1095.72 -438.449C1091.15 -421.378 1101.28 -403.831 1118.35 -399.257L1180.17 -382.693C1197.24 -378.119 1214.79 -388.249 1219.36 -405.32L1235.93 -467.139C1240.5 -484.21 1230.37 -501.757 1213.3 -506.331L1151.48 -522.895ZM802.598 -86.3179C811.746 -120.46 846.84 -140.721 880.982 -131.573L942.801 -115.008C976.943 -105.86 997.204 -70.7666 988.056 -36.6248L971.491 25.1943C962.343 59.3361 927.249 79.5973 893.108 70.4491L831.289 53.8847C797.147 44.7365 776.886 9.64298 786.034 -24.4988L802.598 -86.3179ZM872.7 -100.663C855.629 -105.237 838.082 -95.1066 833.508 -78.0357L816.943 -16.2166C812.369 0.85428 822.5 18.401 839.571 22.9751L901.39 39.5395C918.461 44.1136 936.007 33.983 940.582 16.9121L957.146 -44.907C961.72 -61.9778 951.589 -79.5246 934.519 -84.0988L872.7 -100.663ZM571.888 -214.393C537.746 -223.541 502.653 -203.28 493.504 -169.138L476.94 -107.319C467.792 -73.1773 488.053 -38.0838 522.195 -28.9356L584.014 -12.3712C618.156 -3.22293 653.249 -23.4842 662.397 -57.626L678.962 -119.445C688.11 -153.587 667.849 -188.68 633.707 -197.829L571.888 -214.393ZM524.414 -160.856C528.988 -177.927 546.535 -188.058 563.606 -183.483L625.425 -166.919C642.496 -162.345 652.626 -144.798 648.052 -127.727L631.488 -65.9081C626.914 -48.8373 609.367 -38.7066 592.296 -43.2808L530.477 -59.8451C513.406 -64.4193 503.276 -81.966 507.85 -99.0369L524.414 -160.856ZM297.544 -56.0015C306.692 -90.1432 341.785 -110.405 375.927 -101.256L437.746 -84.6919C471.888 -75.5436 492.149 -40.4502 483.001 -6.30838L466.437 55.5107C457.288 89.6525 422.195 109.914 388.053 100.765L326.234 84.2011C292.092 75.0529 271.831 39.9594 280.979 5.8176L297.544 -56.0015ZM367.645 -70.3467C350.574 -74.9208 333.027 -64.7902 328.453 -47.7193L311.889 14.0998C307.315 31.1707 317.445 48.7174 334.516 53.2915L396.335 69.8559C413.406 74.43 430.953 64.2994 435.527 47.2285L452.091 -14.5906C456.666 -31.6615 446.535 -49.2082 429.464 -53.7823L367.645 -70.3467ZM489.06 94.7007C454.918 85.5525 419.825 105.814 410.676 139.955L394.112 201.775C384.964 235.916 405.225 271.01 439.367 280.158L501.186 296.722C535.328 305.871 570.421 285.609 579.569 251.468L596.134 189.649C605.282 155.507 585.021 120.413 550.879 111.265L489.06 94.7007ZM441.586 148.238C446.16 131.167 463.707 121.036 480.778 125.61L542.597 142.175C559.668 146.749 569.798 164.296 565.224 181.366L548.66 243.186C544.086 260.256 526.539 270.387 509.468 265.813L447.649 249.249C430.578 244.674 420.447 227.128 425.022 210.057L441.586 148.238ZM1307.64 -116.63C1316.79 -150.772 1351.89 -171.033 1386.03 -161.885L1447.85 -145.321C1481.99 -136.173 1502.25 -101.079 1493.1 -66.9373L1476.54 -5.11813C1467.39 29.0236 1432.3 49.2848 1398.15 40.1366L1336.34 23.5722C1302.19 14.424 1281.93 -20.6695 1291.08 -54.8113L1307.64 -116.63ZM1377.75 -130.976C1360.68 -135.55 1343.13 -125.419 1338.55 -108.348L1321.99 -46.5291C1317.42 -29.4582 1327.55 -11.9115 1344.62 -7.33737L1406.44 9.22702C1423.51 13.8011 1441.05 3.6705 1445.63 -13.4004L1462.19 -75.2195C1466.77 -92.2903 1456.64 -109.837 1439.57 -114.411L1377.75 -130.976ZM1220.4 456.306C1186.25 447.158 1151.16 467.419 1142.01 501.561L1125.45 563.38C1116.3 597.522 1136.56 632.615 1170.7 641.763L1232.52 658.328C1266.66 667.476 1301.76 647.215 1310.91 613.073L1327.47 551.254C1336.62 517.112 1316.36 482.019 1282.21 472.87L1220.4 456.306ZM1172.92 509.843C1177.5 492.772 1195.04 482.641 1212.11 487.216L1273.93 503.78C1291 508.354 1301.13 525.901 1296.56 542.972L1280 604.791C1275.42 621.862 1257.87 631.992 1240.8 627.418L1178.98 610.854C1161.91 606.28 1151.78 588.733 1156.36 571.662L1172.92 509.843ZM832.911 418.737C842.059 384.595 877.152 364.334 911.294 373.482L973.113 390.046C1007.26 399.194 1027.52 434.288 1018.37 468.43L1001.8 530.249C992.655 564.391 957.562 584.652 923.42 575.504L861.601 558.939C827.459 549.791 807.198 514.697 816.346 480.556L832.911 418.737ZM903.012 404.391C885.941 399.817 868.394 409.948 863.82 427.019L847.256 488.838C842.682 505.909 852.812 523.456 869.883 528.03L931.702 544.594C948.773 549.168 966.32 539.038 970.894 521.967L987.458 460.147C992.033 443.077 981.902 425.53 964.831 420.956L903.012 404.391ZM406.24 403.798C372.098 394.65 337.004 414.911 327.856 449.053L311.292 510.872C302.144 545.014 322.405 580.107 356.547 589.256L418.366 605.82C452.507 614.968 487.601 594.707 496.749 560.565L513.313 498.746C522.462 464.604 502.2 429.511 468.059 420.363L406.24 403.798ZM358.766 457.335C363.34 440.264 380.887 430.134 397.957 434.708L459.777 451.272C476.847 455.846 486.978 473.393 482.404 490.464L465.84 552.283C461.265 569.354 443.719 579.485 426.648 574.91L364.829 558.346C347.758 553.772 337.627 536.225 342.201 519.154L358.766 457.335ZM18.7625 366.233C27.9107 332.091 63.0042 311.83 97.146 320.978L158.965 337.542C193.107 346.691 213.368 381.784 204.22 415.926L187.655 477.745C178.507 511.887 143.414 532.148 109.272 523L47.4529 506.435C13.3111 497.287 -6.95017 462.194 2.19809 428.052L18.7625 366.233ZM88.8638 351.888C71.7929 347.313 54.2462 357.444 49.672 374.515L33.1077 436.334C28.5335 453.405 38.6642 470.952 55.735 475.526L117.554 492.09C134.625 496.664 152.172 486.534 156.746 469.463L173.31 407.644C177.884 390.573 167.754 373.026 150.683 368.452L88.8638 351.888ZM828.474 682.579C794.332 673.431 759.239 693.692 750.09 727.834L733.526 789.653C724.378 823.795 744.639 858.889 778.781 868.037L840.6 884.601C874.742 893.749 909.835 873.488 918.983 839.346L935.548 777.527C944.696 743.386 924.435 708.292 890.293 699.144L828.474 682.579ZM781 736.116C785.574 719.046 803.121 708.915 820.192 713.489L882.011 730.053C899.082 734.628 909.212 752.174 904.638 769.245L888.074 831.064C883.5 848.135 865.953 858.266 848.882 853.692L787.063 837.127C769.992 832.553 759.861 815.006 764.436 797.936L781 736.116Z" fill="url(#paint0_linear_3_99)"/>
</g>
<rect x="747.411" y="180.137" width="160" height="160" rx="47.9999" transform="rotate(15 747.411 180.137)" stroke="white" stroke-width="31.9999"/>
<rect x="943.364" y="67" width="160" height="160" rx="47.9999" transform="rotate(15 943.364 67)" stroke="white" stroke-width="31.9999"/>
</g>
<defs>
<linearGradient id="paint0_linear_3_99" x1="747.65" y1="-556.002" x2="747.65" y2="886.798" gradientUnits="userSpaceOnUse">
<stop stop-color="#1EEBB0"/>
<stop offset="1" stop-color="#0391EC"/>
</linearGradient>
<clipPath id="clip0_3_99">
<rect width="1149" height="887" fill="white"/>
</clipPath>
<clipPath id="clip1_3_99">
<rect width="1495.3" height="1442.8" fill="white" transform="translate(0 -556)"/>
</clipPath>
</defs>
</svg>
